<svg width="24" height="24" viewBox="0 0 24 24" fill="none" xmlns="http://www.w3.org/2000/svg">
<path fill-rule="evenodd" clip-rule="evenodd" d="M6.91932 2.16254C9.39886 0.720846 10.6386 3.2687e-08 12 0C13.3614 -3.2687e-08 14.6011 0.720845 17.0807 2.16254L17.9193 2.65015C20.3989 4.09184 21.6386 4.81269 22.3193 6C23 7.18732 23 8.62901 23 11.5124V12.4876C23 15.371 23 16.8127 22.3193 18C21.6386 19.1873 20.3989 19.9082 17.9193 21.3499L17.0807 21.8375C14.6011 23.2792 13.3614 24 12 24C10.6386 24 9.39886 23.2792 6.91932 21.8375L6.08068 21.3499C3.60114 19.9082 2.36136 19.1873 1.68068 18C1 16.8127 1 15.371 1 12.4876V11.5124C1 8.62901 1 7.18732 1.68068 6C2.36136 4.81269 3.60114 4.09184 6.08068 2.65015L6.91932 2.16254Z" fill="white"/>
<path fill-rule="evenodd" clip-rule="evenodd" d="M6.91932 2.16254C9.39886 0.720846 10.6386 3.2687e-08 12 0C13.3614 -3.2687e-08 14.6011 0.720845 17.0807 2.16254L17.9193 2.65015C20.3989 4.09184 21.6386 4.81269 22.3193 6C23 7.18732 23 8.62901 23 11.5124V12.4876C23 15.371 23 16.8127 22.3193 18C21.6386 19.1873 20.3989 19.9082 17.9193 21.3499L17.0807 21.8375C14.6011 23.2792 13.3614 24 12 24C10.6386 24 9.39886 23.2792 6.91932 21.8375L6.08068 21.3499C3.60114 19.9082 2.36136 19.1873 1.68068 18C1 16.8127 1 15.371 1 12.4876V11.5124C1 8.62901 1 7.18732 1.68068 6C2.36136 4.81269 3.60114 4.09184 6.08068 2.65015L6.91932 2.16254ZM13.2222 16.8C13.2222 17.4627 12.675 18 12 18C11.325 18 10.7778 17.4627 10.7778 16.8C10.7778 16.1373 11.325 15.6 12 15.6C12.675 15.6 13.2222 16.1373 13.2222 16.8ZM12 5.1C12.5063 5.1 12.9167 5.50294 12.9167 6V13.2C12.9167 13.6971 12.5063 14.1 12 14.1C11.4937 14.1 11.0833 13.6971 11.0833 13.2V6C11.0833 5.50294 11.4937 5.1 12 5.1Z" fill="#EB1C4E"/>
</svg>
